<svg xmlns="http://www.w3.org/2000/svg" xmlns:xlink="http://www.w3.org/1999/xlink" version="1.1" width="51.413" height="20.4164" viewBox="0 0 51.413 20.4164">
<g>
<path transform="matrix(1,0,0,-1,1,19.4164)" d="M16.3247 .7835 19.5126 3.9713H5.3476L12.8509 11.5172H8.3557C5.5712 8.7174 2.7921 5.9125 0 3.1201L2.3363 .7835ZM7.3525 18.2594 4.1641 15.0715H18.9618L11.4591 7.5257 15.954 7.5254C18.7381 10.3255 21.5178 13.1301 24.3096 15.9231L21.973 18.2594Z" fill="#ffffff"/>
<path transform="matrix(1,0,0,-1,1,19.4164)" d="M36.6386 5.3623C36.6386 3.8786 36.1729 2.5447 35.1071 1.4978 34.0614 .4714 32.7594 0 31.2996 0 29.84 0 28.5381 .4714 27.4924 1.4978 26.4266 2.5447 25.9608 3.8786 25.9608 5.3623V13.0541C25.9608 14.538 26.4266 15.8717 27.4924 16.9186 28.5381 17.945 29.84 18.4164 31.2996 18.4164 32.7594 18.4164 34.0614 17.945 35.1071 16.9186 36.1729 15.8717 36.6386 14.538 36.6386 13.0541ZM45.6398 15.1526H41.9063V12.5578H38.6195V18.2772H49.413V15.8224L43.435 .1392H39.9172ZM33.3286 5.4547V12.9617C33.3286 13.5947 33.1914 14.2087 32.7725 14.6985 32.3898 15.1461 31.8764 15.2915 31.2996 15.2915 30.7227 15.2915 30.2094 15.1461 29.827 14.6985 29.408 14.2087 29.2708 13.5947 29.2708 12.9617V5.4547C29.2708 4.8217 29.408 4.2077 29.827 3.7179 30.2094 3.2703 30.7227 3.1249 31.2996 3.1249 31.8764 3.1249 32.3898 3.2703 32.7725 3.7179 33.1914 4.2077 33.3286 4.8217 33.3286 5.4547" fill="#ffffff" fill-rule="evenodd"/>
</g>
</svg>
